<svg xmlns="http://www.w3.org/2000/svg" viewBox="0 0 64 64">
  <rect width="64" height="64" fill="#1a2332" rx="8"/>
  <g transform="translate(8, 12)">
    <rect x="0" y="0" width="48" height="8" fill="#c9985f" rx="1"/>
    <rect x="0" y="0" width="48" height="1" fill="#dab07a" opacity="0.6"/>
    <rect x="0" y="7" width="48" height="1" fill="#8b6f47" opacity="0.4"/>
    <line x1="12" y1="0" x2="12" y2="8" stroke="#8b6f47" stroke-width="0.5" opacity="0.3"/>
    <line x1="24" y1="0" x2="24" y2="8" stroke="#8b6f47" stroke-width="0.5" opacity="0.3"/>
    <line x1="36" y1="0" x2="36" y2="8" stroke="#8b6f47" stroke-width="0.5" opacity="0.3"/>

    <rect x="2" y="10" width="48" height="8" fill="#b88954" rx="1"/>
    <rect x="2" y="10" width="48" height="1" fill="#d4a673" opacity="0.6"/>
    <rect x="2" y="17" width="48" height="1" fill="#8b6f47" opacity="0.4"/>
    <line x1="14" y1="10" x2="14" y2="18" stroke="#8b6f47" stroke-width="0.5" opacity="0.3"/>
    <line x1="26" y1="10" x2="26" y2="18" stroke="#8b6f47" stroke-width="0.5" opacity="0.3"/>
    <line x1="38" y1="10" x2="38" y2="18" stroke="#8b6f47" stroke-width="0.5" opacity="0.3"/>

    <rect x="-2" y="20" width="48" height="8" fill="#c9985f" rx="1"/>
    <rect x="-2" y="20" width="48" height="1" fill="#dab07a" opacity="0.6"/>
    <rect x="-2" y="27" width="48" height="1" fill="#8b6f47" opacity="0.4"/>
    <line x1="10" y1="20" x2="10" y2="28" stroke="#8b6f47" stroke-width="0.5" opacity="0.3"/>
    <line x1="22" y1="20" x2="22" y2="28" stroke="#8b6f47" stroke-width="0.5" opacity="0.3"/>
    <line x1="34" y1="20" x2="34" y2="28" stroke="#8b6f47" stroke-width="0.5" opacity="0.3"/>

    <rect x="4" y="30" width="48" height="8" fill="#b88954" rx="1"/>
    <rect x="4" y="30" width="48" height="1" fill="#d4a673" opacity="0.6"/>
    <rect x="4" y="37" width="48" height="1" fill="#8b6f47" opacity="0.4"/>
    <line x1="16" y1="30" x2="16" y2="38" stroke="#8b6f47" stroke-width="0.5" opacity="0.3"/>
    <line x1="28" y1="30" x2="28" y2="38" stroke="#8b6f47" stroke-width="0.5" opacity="0.3"/>
    <line x1="40" y1="30" x2="40" y2="38" stroke="#8b6f47" stroke-width="0.5" opacity="0.3"/>
  </g>
</svg>
